<?xml version="1.0" encoding="utf-8"?>
<!-- Generator: Adobe Illustrator 16.0.0, SVG Export Plug-In . SVG Version: 6.00 Build 0)  -->
<!DOCTYPE svg PUBLIC "-//W3C//DTD SVG 1.1//EN" "http://www.w3.org/Graphics/SVG/1.1/DTD/svg11.dtd">
<svg version="1.1" id="RITTAL-Logo" xmlns="http://www.w3.org/2000/svg" xmlns:xlink="http://www.w3.org/1999/xlink" x="0px"
	 y="0px" width="556.2px" height="255.6px" viewBox="0 0 556.2 255.6" enable-background="new 0 0 556.2 255.6"
	 xml:space="preserve">
<g>
	<g>
		<rect y="211.1" fill="#00A160" width="244.9" height="44.5"/>
	</g>
	<g>
		<rect x="252.8" y="211.1" fill="#0095DA" width="70" height="44.5"/>
	</g>
	<g>
		<rect x="330.6" y="211.1" fill="#0066B3" width="70" height="44.5"/>
	</g>
	<g>
		<rect x="408.4" y="211.1" fill="#92278F" width="70" height="44.5"/>
	</g>
	<g>
		<rect x="486.2" y="211.1" fill="#ED0677" width="70" height="44.5"/>
	</g>
	<g>
		<rect y="166.6" width="556.2" height="22.2"/>
		<g>
			<path d="M133.9,13.4C127.2,4.6,116.2,0,102.1,0H46.8L31.3,58H0v29.9h23.3L8.6,142.7h33.8L57,88.4h13.7l12.6,54.3h37.2l-15-59.4
				c16.6-6.4,28.7-19.8,33.3-37C142.1,33.5,140.4,21.8,133.9,13.4z M105.8,43c-2.5,9.2-10.4,15-20.6,15h-20l7.1-26.6h23.7
				c4.4,0,7.7,1.1,9.2,3.1C107,36.8,106.3,40.8,105.8,43z"/>
			<polygon points="129.8,142.7 163.7,142.7 201.9,0 168.1,0 			"/>
			<polygon points="504.3,111.3 534.1,0 500.3,0 462,142.7 556.2,142.7 556.2,111.3 			"/>
			<path d="M444.1,0h-25.8l-90.6,142.7H365l15.8-25.9h40.6l1.9,25.9h34.8L444.1,0z M397.6,86.8l21.1-35.1l1.7,35.1H397.6z"/>
			<polygon points="292.9,0 213.7,0 205.3,31.4 230.3,31.4 200.4,142.7 234.3,142.7 264.1,31.4 284.5,31.4 			"/>
			<polygon points="300.5,0 292.1,31.4 314.9,31.4 285.1,142.7 318.9,142.7 348.8,31.4 370.9,31.4 379.3,0 			"/>
		</g>
	</g>
</g>
</svg>
